<mxfile host="Electron" modified="2023-10-04T09:48:44.829Z" agent="5.0 (Windows NT 10.0; Win64; x64) AppleWebKit/537.36 (KHTML, like Gecko) draw.io/20.3.0 Chrome/104.0.5112.114 Electron/20.1.3 Safari/537.36" etag="rqyiUe0JlFNmFfWDulwD" compressed="false" version="20.3.0" type="device">
  <diagram name="ND0022" id="1CP9VX86ncTdAmcYDIcw">
    <mxGraphModel dx="782" dy="531" grid="1" gridSize="2" guides="1" tooltips="1" connect="1" arrows="1" fold="1" page="1" pageScale="1" pageWidth="1169" pageHeight="827" math="0" shadow="0">
      <root>
        <mxCell id="22vkG-h5v2N9dKBLQ-ZE-0" />
        <mxCell id="22vkG-h5v2N9dKBLQ-ZE-135" value="Label" style="" parent="22vkG-h5v2N9dKBLQ-ZE-0" />
        <object label="Symbol" Width="4" Height="54" UoM="mm" id="22vkG-h5v2N9dKBLQ-ZE-138">
          <mxCell style="" parent="22vkG-h5v2N9dKBLQ-ZE-0" />
        </object>
        <mxCell id="U1XBBmectsp78E5T3mQc-0" value="" style="rounded=0;whiteSpace=wrap;html=1;fillColor=none;" parent="22vkG-h5v2N9dKBLQ-ZE-138" vertex="1">
          <mxGeometry x="264" y="144" width="16" height="382" as="geometry" />
        </mxCell>
        <mxCell id="NZ9D4jzbQdlXrxmxBGxv-0" value="" style="rounded=0;whiteSpace=wrap;html=1;fillColor=#000000;" parent="22vkG-h5v2N9dKBLQ-ZE-138" vertex="1">
          <mxGeometry x="264" y="176" width="16" height="32" as="geometry" />
        </mxCell>
        <mxCell id="NZ9D4jzbQdlXrxmxBGxv-1" value="" style="rounded=0;whiteSpace=wrap;html=1;fillColor=#000000;" parent="22vkG-h5v2N9dKBLQ-ZE-138" vertex="1">
          <mxGeometry x="264" y="240" width="16" height="32" as="geometry" />
        </mxCell>
        <mxCell id="NZ9D4jzbQdlXrxmxBGxv-2" value="" style="rounded=0;whiteSpace=wrap;html=1;fillColor=#000000;" parent="22vkG-h5v2N9dKBLQ-ZE-138" vertex="1">
          <mxGeometry x="264" y="304" width="16" height="32" as="geometry" />
        </mxCell>
        <mxCell id="NZ9D4jzbQdlXrxmxBGxv-3" value="" style="rounded=0;whiteSpace=wrap;html=1;fillColor=#000000;" parent="22vkG-h5v2N9dKBLQ-ZE-138" vertex="1">
          <mxGeometry x="264" y="368" width="16" height="32" as="geometry" />
        </mxCell>
        <mxCell id="NZ9D4jzbQdlXrxmxBGxv-4" value="" style="rounded=0;whiteSpace=wrap;html=1;fillColor=#000000;" parent="22vkG-h5v2N9dKBLQ-ZE-138" vertex="1">
          <mxGeometry x="264" y="432" width="16" height="32" as="geometry" />
        </mxCell>
        <mxCell id="NZ9D4jzbQdlXrxmxBGxv-5" value="" style="endArrow=none;html=1;rounded=0;exitX=0.5;exitY=0;exitDx=0;exitDy=0;" parent="22vkG-h5v2N9dKBLQ-ZE-138" source="U1XBBmectsp78E5T3mQc-0" edge="1">
          <mxGeometry width="50" height="50" relative="1" as="geometry">
            <mxPoint x="514" y="302" as="sourcePoint" />
            <mxPoint x="272" y="112" as="targetPoint" />
          </mxGeometry>
        </mxCell>
        <mxCell id="NZ9D4jzbQdlXrxmxBGxv-6" value="" style="endArrow=none;html=1;rounded=0;" parent="22vkG-h5v2N9dKBLQ-ZE-138" edge="1">
          <mxGeometry width="50" height="50" relative="1" as="geometry">
            <mxPoint x="256" y="112" as="sourcePoint" />
            <mxPoint x="288" y="112" as="targetPoint" />
          </mxGeometry>
        </mxCell>
        <mxCell id="NZ9D4jzbQdlXrxmxBGxv-7" value="" style="endArrow=none;html=1;rounded=0;" parent="22vkG-h5v2N9dKBLQ-ZE-138" edge="1">
          <mxGeometry width="50" height="50" relative="1" as="geometry">
            <mxPoint x="256" y="96" as="sourcePoint" />
            <mxPoint x="288" y="96" as="targetPoint" />
          </mxGeometry>
        </mxCell>
        <mxCell id="NZ9D4jzbQdlXrxmxBGxv-8" value="" style="rounded=0;whiteSpace=wrap;html=1;fillColor=#000000;" parent="22vkG-h5v2N9dKBLQ-ZE-138" vertex="1">
          <mxGeometry x="264" y="495" width="16" height="32" as="geometry" />
        </mxCell>
        <mxCell id="22vkG-h5v2N9dKBLQ-ZE-124" value="Connection" style="" parent="22vkG-h5v2N9dKBLQ-ZE-0" />
        <object label="Connection" PipingConnector="Y" LabelConnector="N" SignalConnector="N" Direction="270" AuxiliaryConnector="N" id="U1XBBmectsp78E5T3mQc-3">
          <mxCell style="vsdxID=1407;fillColor=none;gradientColor=none;shape=stencil(rVFbDsIgEDwNnyQU4glqvcfGblsilmZBS28vZGMsxg9j/JvZmX1kR5g2TLCg0CpE8hdcbR8nYY5CaztPSDZmJEwnTDt4wpH8be6ZL1CcBV39vUxI3KdKh1YbswPTEzuBzlmiVGmKau9zUKM+jlJJQrJBko8QrZ+rrQ5oRJnXyMHBWElhRVx25ebnw/5zVvPFWRm83jxY5zilvf4eSy5xpKZ7AA==);strokeColor=#00FF00;strokeWidth=1;points=[[0.5,0.5,0,0,0]];labelBackgroundColor=none;rounded=0;html=1;whiteSpace=wrap;aspect=fixed;noLabel=1;snapToPoint=1;container=0;fontSize=16;fontFamily=Helvetica;" parent="22vkG-h5v2N9dKBLQ-ZE-124" vertex="1">
            <mxGeometry x="266" y="90" width="12" height="12" as="geometry" />
          </mxCell>
        </object>
        <mxCell id="22vkG-h5v2N9dKBLQ-ZE-136" value="Origo" style="locked=1;" parent="22vkG-h5v2N9dKBLQ-ZE-0" />
        <object label="origo" H="58" W="4" UoM="mm" id="22vkG-h5v2N9dKBLQ-ZE-137">
          <mxCell style="vsdxID=1407;fillColor=none;gradientColor=none;shape=stencil(rVFbDsIgEDwNnyQU4glqvcfGblsilmZBS28vZGMsxg9j/JvZmX1kR5g2TLCg0CpE8hdcbR8nYY5CaztPSDZmJEwnTDt4wpH8be6ZL1CcBV39vUxI3KdKh1YbswPTEzuBzlmiVGmKau9zUKM+jlJJQrJBko8QrZ+rrQ5oRJnXyMHBWElhRVx25ebnw/5zVvPFWRm83jxY5zilvf4eSy5xpKZ7AA==);strokeColor=#ff0000;strokeWidth=1;points=[[0.5,0.5,0,0,0]];labelBackgroundColor=none;rounded=0;html=1;whiteSpace=wrap;aspect=fixed;noLabel=1;snapToPoint=1;" parent="22vkG-h5v2N9dKBLQ-ZE-136" vertex="1">
            <mxGeometry x="268" y="140" width="7.874" height="7.87" as="geometry" />
          </mxCell>
        </object>
      </root>
    </mxGraphModel>
  </diagram>
</mxfile>
